<?xml version="1.0" encoding="utf-8"?>
<!-- Generator: Adobe Illustrator 19.0.1, SVG Export Plug-In . SVG Version: 6.00 Build 0)  -->
<!DOCTYPE svg PUBLIC "-//W3C//DTD SVG 1.1 Tiny//EN" "http://www.w3.org/Graphics/SVG/1.1/DTD/svg11-tiny.dtd">
<svg version="1.1" baseProfile="tiny" id="Layer_1" xmlns="http://www.w3.org/2000/svg" xmlns:xlink="http://www.w3.org/1999/xlink"
	 x="0px" y="0px" width="148px" height="148px" viewBox="0 0 148 148" xml:space="preserve">
<g id="XMLID_10_">
	<g id="XMLID_11_">
		<g id="XMLID_12_">
			<path fill-rule="evenodd" fill="#FFFFFF" d="M74.01,144.58c-38.92,0-70.59-31.66-70.59-70.58S35.08,3.42,74.01,3.42
				c38.92,0,70.58,31.66,70.58,70.58S112.92,144.58,74.01,144.58z"/>
			<path fill="#5DACA2" d="M74.01,6.84c37.09,0,67.16,30.07,67.16,67.16c0,37.08-30.07,67.16-67.16,67.16S6.84,111.08,6.84,74
				C6.84,36.91,36.92,6.84,74.01,6.84 M74.01,0C33.2,0,0,33.2,0,74s33.2,74,74.01,74c40.8,0,73.99-33.19,73.99-74S114.81,0,74.01,0
				L74.01,0z"/>
		</g>
	</g>
</g>
<g>
	<path fill="#5DACA2" d="M70.9,103.07c-8.69-0.89-17.29-3.99-23.93-8.78l7.98-11.79c5.67,3.99,10.99,6.38,16.49,7.27V79.14
		c-14.27-3.28-21.54-8.15-21.54-19.15v-0.18c0-10.46,7.62-17.73,21.19-18.7v-5.06h9.22v5.32c7.27,0.8,13.38,3.28,18.7,6.92
		l-7.27,11.88c-3.63-2.57-7.89-4.34-11.88-5.32v10.28c14.09,3.28,21.19,8.33,21.19,19.32v0.18c0,10.82-8.33,17.46-20.92,18.62v8.69
		H70.9V103.07z M71.52,54.05c-4.34,0.36-6.03,2.13-6.03,4.43v0.18c0,2.3,1.24,3.63,6.03,4.97V54.05z M85.7,85.79v-0.18
		c0-2.39-1.33-3.72-5.94-5.05v9.75C83.84,89.87,85.7,88.36,85.7,85.79z"/>
</g>
</svg>
