<?xml version="1.0" encoding="utf-8"?>
<!-- Generator: Adobe Illustrator 19.0.1, SVG Export Plug-In . SVG Version: 6.00 Build 0)  -->
<!DOCTYPE svg PUBLIC "-//W3C//DTD SVG 1.1 Tiny//EN" "http://www.w3.org/Graphics/SVG/1.1/DTD/svg11-tiny.dtd">
<svg version="1.1" baseProfile="tiny" id="Layer_1" xmlns="http://www.w3.org/2000/svg" xmlns:xlink="http://www.w3.org/1999/xlink"
	 x="0px" y="0px" width="148px" height="148px" viewBox="0 0 148 148" xml:space="preserve">
<g id="XMLID_125_">
	<g id="XMLID_126_">
		<g id="XMLID_128_">
			<path fill-rule="evenodd" fill="#FFFFFF" d="M74,144.58c-38.92,0-70.58-31.66-70.58-70.58S35.08,3.42,74,3.42
				c38.92,0,70.58,31.66,70.58,70.58S112.92,144.58,74,144.58z"/>
			<path fill="#254A64" d="M74.01,6.84c37.09,0,67.16,30.07,67.16,67.16c0,37.08-30.07,67.16-67.16,67.16S6.84,111.08,6.84,74
				C6.84,36.91,36.92,6.84,74.01,6.84 M74.01,0C33.2,0,0,33.2,0,74s33.2,74,74.01,74c40.8,0,73.99-33.19,73.99-74S114.81,0,74.01,0
				L74.01,0z"/>
		</g>
	</g>
</g>
<g id="_x31_c8I21.tif_1_">
	<g>
		<path fill="#254A64" d="M73.92,96.57c-3.32-4.14-7.7-6.53-12.9-7.34c-5.07-0.78-10.03-0.2-15,1.73c0-1.84,0-3.5,0-5.17
			c0-1.88,0.02-3.76-0.03-5.63c-0.01-0.31-0.22-0.8-0.46-0.9c-3.64-1.39-7.29-2.73-11.14-4.16c0,1.87-0.03,3.57,0.03,5.27
			c0.01,0.26,0.37,0.55,0.63,0.76c2.56,2.07,2.73,5.35,0.29,7.5c-0.7,0.62-0.65,1.21-0.53,1.96c0.76,5.1,1.49,10.2,2.23,15.3
			c0.03,0.19,0,0.38,0,0.65c-3.31,0-6.57,0-9.96,0c0.4-2.82,0.77-5.59,1.17-8.36c0.4-2.78,0.84-5.56,1.21-8.34
			c0.04-0.3-0.16-0.74-0.39-0.95c-2.71-2.46-2.61-5.56,0.26-7.92c0.25-0.21,0.46-0.62,0.47-0.95c0.04-1.95,0.06-3.91-0.02-5.86
			c-0.01-0.36-0.43-0.88-0.79-1.02c-2.28-0.91-4.59-1.74-7.12-2.69c0.45-0.29,0.74-0.5,1.06-0.67c16.74-9.35,33.48-18.7,50.2-28.07
			c0.61-0.34,1.06-0.39,1.7-0.03c16.86,9.45,33.73,18.88,50.61,28.31c0.17,0.09,0.33,0.2,0.7,0.44c-0.52,0.2-0.88,0.35-1.25,0.49
			c-7.28,2.7-14.55,5.42-21.84,8.07c-0.87,0.31-1.11,0.73-1.09,1.6c0.05,2.85,0.02,5.71,0.02,8.56c0,0.53,0,1.07,0,1.68
			C91.49,87.57,81.88,87.84,73.92,96.57z M46.08,76.77c18.71-7.06,37.21-7.05,55.72-0.05c0.04-0.56,0.07-0.83,0.08-1.1
			c0.06-3.04,0.06-3.04-2.88-3.92c-10.51-3.14-21.13-5.23-32.19-3.88c-6.88,0.84-13.55,2.55-20.14,4.62
			c-0.24,0.08-0.54,0.46-0.56,0.71C46.04,74.23,46.08,75.31,46.08,76.77z"/>
	</g>
</g>
</svg>
