<?xml version="1.0" encoding="utf-8"?>
<!-- Generator: Adobe Illustrator 19.0.1, SVG Export Plug-In . SVG Version: 6.00 Build 0)  -->
<!DOCTYPE svg PUBLIC "-//W3C//DTD SVG 1.1 Tiny//EN" "http://www.w3.org/Graphics/SVG/1.1/DTD/svg11-tiny.dtd">
<svg version="1.1" baseProfile="tiny" id="Layer_1" xmlns="http://www.w3.org/2000/svg" xmlns:xlink="http://www.w3.org/1999/xlink"
	 x="0px" y="0px" width="148px" height="148px" viewBox="0 0 148 148" xml:space="preserve">
<g id="XMLID_14_">
	<g id="XMLID_15_">
		<g id="XMLID_16_">
			<path fill-rule="evenodd" fill="#FFFFFF" d="M74.01,144.58c-38.92,0-70.59-31.66-70.59-70.58S35.08,3.42,74.01,3.42
				c38.92,0,70.58,31.66,70.58,70.58S112.92,144.58,74.01,144.58z"/>
			<path fill="#CFC1AE" d="M74.01,6.84c37.09,0,67.16,30.07,67.16,67.16c0,37.08-30.07,67.16-67.16,67.16S6.84,111.08,6.84,74
				C6.84,36.91,36.92,6.84,74.01,6.84 M74.01,0C33.2,0,0,33.2,0,74s33.2,74,74.01,74c40.8,0,73.99-33.19,73.99-74S114.81,0,74.01,0
				L74.01,0z"/>
		</g>
	</g>
</g>
<g>
	<path fill="#CFC1AE" d="M121.5,76.81c-0.79-1.28-2.25-3.36-3.8-5.56c-2.04-2.9-4.36-6.19-5.09-7.63c-0.31-0.6-0.19-1.45,0.06-3.03
		c0.47-2.94,1.18-7.38-0.69-15.47c-2.9-12.57-16.06-27.26-43.61-27.26c-26.57,0-39.42,17.48-42.59,33.84
		c-2.76,14.26,4.73,26.58,9.44,32.66c6.07,7.83,8.55,15.1,7.81,22.86c-0.76,8-3.4,21.4-3.42,21.53c-0.13,0.63,0.29,1.24,0.92,1.37
		c0.08,0.02,0.15,0.02,0.23,0.02c0.54,0,1.03-0.38,1.14-0.94c0.03-0.14,2.69-13.65,3.46-21.76c0.8-8.39-1.83-16.17-8.29-24.51
		c-4.47-5.76-11.57-17.43-8.99-30.79c2.99-15.44,15.14-31.95,40.3-31.95c26.18,0,38.63,13.71,41.34,25.45
		c1.76,7.65,1.1,11.82,0.66,14.58c-0.28,1.76-0.5,3.14,0.16,4.45c0.8,1.58,3.07,4.8,5.26,7.92c1.53,2.17,2.98,4.22,3.72,5.44
		c0.85,1.38,1.15,2.61,0.85,3.47c-0.2,0.55-0.68,0.97-1.43,1.23c-3.06,1.07-5.05,2.04-5.5,3.52c-0.23,0.77,0.04,1.72,0.37,2.93
		c0.2,0.71,0.57,2.04,0.44,2.41c-0.27,0.7-1.13,1.29-1.44,1.46c-0.36,0.19-0.59,0.56-0.61,0.96c-0.02,0.4,0.17,0.79,0.5,1.02
		c0.15,0.11,0.43,0.39,0.48,0.4c-0.06,0.16-0.41,0.58-0.66,0.89c-0.72,0.88-1.71,2.09-1.98,3.55c-0.14,0.75,0.07,1.38,0.28,2.05
		c0.29,0.9,0.68,2.12,0.68,4.57c0,3.58-3.16,5.78-6.13,6.03c-0.63,0.06-1.5,0.09-2.49,0.13c-1.41,0.06-2.79,0.13-4.12,0.23
		c-0.02,0-0.03-0.01-0.05-0.01c-0.16,0.02-14.15,0.47-24.64-7.27c-2.52-1.86-2.99-5.12-2.99-5.16c-0.09-0.64-0.68-1.09-1.31-1
		c-0.64,0.08-1.09,0.66-1.01,1.3c0.02,0.17,0.58,4.27,3.92,6.73c6,4.43,12.92,6.33,18.13,7.15c-0.74,0.41-1.34,0.9-1.72,1.51
		c-2.06,3.35-0.35,12.08-0.15,13.07c0.13,0.63,0.75,1.04,1.38,0.91c0.63-0.13,1.04-0.74,0.91-1.38c-0.69-3.37-1.34-9.44-0.15-11.38
		c1.2-1.95,8.41-2.23,11.88-2.37c1.04-0.04,1.94-0.08,2.6-0.13c4.01-0.35,8.26-3.39,8.26-8.36c0-2.81-0.48-4.3-0.8-5.28
		c-0.15-0.47-0.24-0.75-0.21-0.91c0.16-0.87,0.9-1.78,1.49-2.5c0.47-0.58,0.88-1.08,1.06-1.62c0.23-0.7,0.07-1.36-0.28-1.93
		c0.5-0.45,1.02-1.06,1.31-1.82c0.41-1.06,0.01-2.49-0.37-3.88c-0.16-0.57-0.4-1.43-0.39-1.63c0.09-0.21,0.66-0.82,4.04-2
		c1.43-0.5,2.41-1.42,2.85-2.65C123.11,80.72,122.75,78.83,121.5,76.81z"/>
	<g id="XMLID_2_">
		<path id="XMLID_10_" fill="#CFC1AE" d="M105.68,51.41c0.61-2.95-0.27-5.18-0.97-6.41c-0.81-1.41-1.92-2.47-3.08-3.2
			c-0.32-1.43-0.98-2.75-1.96-3.88c-1.37-1.58-3.26-2.66-5.27-3.05c-1.78-3.19-5.55-5-9.23-5c-0.21,0-0.42,0.01-0.63,0.02
			c-1.88-2.17-4.75-3.45-8.09-3.45c-1.6,0-3.29,0.3-4.76,0.93c-1.54-0.91-3.36-1.4-5.35-1.4c-2.14,0-4.47,0.62-6.27,1.84
			c-0.98-0.28-2.03-0.43-3.12-0.43c-3.52,0-7.41,1.59-9.59,4.67c-4.99,0.15-8.16,3.58-9.48,6.79c-0.21,0.53-0.37,1.02-0.48,1.48
			c-5.99,4.79-8.36,11.02-7.66,19.89c0.25,3.18,2.07,8.95,7.24,11.9c4.07,11.59,20.82,12.96,23.86,11.65
			c-0.48,2.2-5.01,6.03-5.01,6.03s6.83,0,8.79,0c1.91-3.99,7.86-9.79,9.39-9.44c10.76,1.37,17.03-6.01,17.17-10.19
			c6.18,1.86,10.99-1.29,12.1-3c0.83-1.28,1.26-2.79,1.28-4.33c1.46-1.34,2.42-3.25,2.64-5.46
			C107.4,55.16,106.84,53.04,105.68,51.41z M100.06,60.75c0.66,1.46,0.56,3.13-0.3,4.34c-0.35,0.49-3,2.17-11.28-0.28
			c-2.62-1.11-5.77-2.2-6.71-5.81c-0.31,0.94-6.36-0.57-7.61-1.11c-1.97-0.84-4.75-2.31-3.89-3.75c-3.23,1.15-7.13-0.55-6.85-3.11
			c-1.82-0.35-3.64-2.48-4.08-4.92c-0.41-2.66,0.84-3.97,1.81-4.38c-1.03-2.45-0.76-4.78,0.05-6.14c-0.27,0.06-1.82,1.39-1.82,1.39
			l-1.63-0.23c0,0,1.1,0.62,0.81,2.61c-0.29,1.99-2.74,4.76-4.55,5.14c4.67,2.96,6.89,8.63,5.73,9.85
			c7.03,0.2,10.16,5.59,10.16,5.59s5.15,0.19,8.74,2.33c0.58,0.35,2.7,2.12,5.42,3.67c3.89,2.21,1.72,9.33-6.8,9.93
			c-1.29,0.05-5.93,0.23-8.85-3.84c-4.82,1.58-9.44-0.72-9.58-2.51c-7.7,1.22-8.74-2.17-9.19-2.88c-1.35,1.59-7.5,4.46-11.71,1.29
			c-3.77-2.92-4.18-8-4.18-8c-0.25-3.16-0.08-5.93,0.64-8.39c1.09-2,2.26-1.66,2.92-1.24c1.44,0.9,2.49,2.39,2.5,3.78
			c0.45-1.02,3.03-1.27,4.79-0.74c1.71,0.52,1.87,2.3,1.87,2.3s0.29,1.33-1.05,2.74c-2.44,2.53-5.96,3.17-5.96,3.17
			s1.45,0.69,1.92,2.22c7.83-8.55,18.01-1.47,18.01-1.47s-0.75,0.53-1.29,1.54c2.83-1.35,8.19,1.58,9.33,3
			c1.14,1.42,7.91,5.64,10.94,1.89c-1.97,0.59-3.72,0.12-6.74-1.29c-3.03-1.42-0.49-4.19,0.99-3.93c-0.71-0.84-3.45-0.36-4.72,1.53
			c-1.63-1.63-4.59-1.81-6.27-3.06c-2.02-1.5-1.98-1.95-0.96-4.12c-2.78,0.71-3.62,0.85-6.39,0.29c-2.76-0.57-6.84,0.75-6.23-3.08
			c0.59-3.73,4.5-2.13,6.06-2.43c-0.55-0.54-0.9-0.3-1.19-1.57c-0.28-1.27,1.12-2.16,1.09-2.38c-1.6-0.34-2.06,1.01-3.76,2.14
			c-1.7,1.14-5.78,0.55-7.95,0.07c-0.8-0.18-2.2-0.93-3.32-2.76c-0.49-0.8-1.32-4.48,2.39-5.7c-0.63-0.62,1.09-6.12,6.07-6.31
			c0.09,1.1,0.12,1.63,0.77,3.04c-2.09,0.92-2.05,3.26-1.82,4.15c0.67-1.33,1.9-2.07,3.88-3.42c2.25-1.53,3.21-1.84,4.15-2.8
			c-1.71-0.17-4.69,1.71-4.63-0.69c0.31-4.95,8.21-6.32,11.22-3.58c0.73-2.74,7.82-4.54,10.52-0.06c0.66-2.68,9.62-4.01,11.1,2.05
			c1.49-1.96,8.78-0.62,8.77,4.2c-0.01,1.96-0.12,3.1-1.3,5.1c1.92-0.53,4.22-2.95,3.31-5.29c2.34,0.35,4.8,2.48,4.33,5.78
			c1.35,0.23,3.82,4.85,0.51,8.52c-0.61,0.68-2.87,1.72-3.31,0.52c-0.45-1.23-1.35-1.07-1.35-1.07s-0.01,0.89-0.11,1.54
			c-0.09,0.65-1.41,1.56-2.33,1.75c-0.93,0.18-3.26,0.41-5.91-2.71c-0.74-0.92-0.71-1.79-0.4-2.61c0.24-0.63,1.48-2.3,2.52-2.53
			c-0.77,0.13-1.41-0.05-1.81-0.28c-0.77-0.44-0.86-1.25-1.05-1.55c0.38,1.83-0.77,5.4-3.71,5.18c-3.6-0.28-6.9-1.91-6.02-3.49
			c-0.56,0.05-3.86,0.29-3.93-2.67c-0.03-1.39,0.58-5.27,2.46-7.27c-3.44-0.64-4.15,4.37-5.35,5.1c-1,0.61-2.62,0.57-3.48,1.82
			c3.56-0.16,4.11,2.87,7.07,4.87c5.63,4.11,9.74,3.8,11.33,4.64c2.58,1.36,2.94,2.01,2.85,5.34c0.56,0.39,1.36-0.13,2-1.17
			c0.65-1.04,2.04-0.06,4.33-0.73c1.28-0.48,1.97-0.64,2.71-1.47c0.74-0.83,3.44,0.28,4.08-1.28c0.47-1.14,1.53-1.62,2.29-2.38
			C104.15,54.16,103.85,59.94,100.06,60.75z"/>
		<path id="XMLID_9_" fill="#CFC1AE" d="M79.27,43.56c0-0.02,0.03-0.04,0.03-0.06c0.85-1.34,1.76-1.73,2.92-2.05
			c-0.58-0.44-1.28-0.44-1.91-0.3c0.22-1.11,0.19-2.38-0.66-3.34c-0.56,2.87-2.11,4.63-2.99,4.94c1.08,0.05,2.18,0.52,2.59,0.72
			C79.26,43.51,79.27,43.53,79.27,43.56z"/>
	</g>
</g>
</svg>
