<?xml version="1.0" encoding="utf-8"?>
<!-- Generator: Adobe Illustrator 19.0.1, SVG Export Plug-In . SVG Version: 6.00 Build 0)  -->
<!DOCTYPE svg PUBLIC "-//W3C//DTD SVG 1.1 Tiny//EN" "http://www.w3.org/Graphics/SVG/1.1/DTD/svg11-tiny.dtd">
<svg version="1.1" baseProfile="tiny" id="Layer_1" xmlns="http://www.w3.org/2000/svg" xmlns:xlink="http://www.w3.org/1999/xlink"
	 x="0px" y="0px" width="148px" height="148px" viewBox="0 0 148 148" xml:space="preserve">
<g id="XMLID_1_">
	<g id="XMLID_3_">
		<g id="XMLID_4_">
			<path fill-rule="evenodd" fill="#FFFFFF" d="M74,144.58c-38.92,0-70.58-31.66-70.58-70.58S35.08,3.42,74,3.42
				c38.92,0,70.58,31.66,70.58,70.58S112.92,144.58,74,144.58z"/>
			<path fill="#BCD9ED" d="M74.01,6.84c37.09,0,67.16,30.07,67.16,67.16c0,37.08-30.07,67.16-67.16,67.16S6.84,111.08,6.84,74
				C6.84,36.91,36.92,6.84,74.01,6.84 M74.01,0C33.2,0,0,33.2,0,74s33.2,74,74.01,74c40.8,0,73.99-33.19,73.99-74S114.81,0,74.01,0
				L74.01,0z"/>
		</g>
	</g>
</g>
<path fill="#BCD9ED" d="M74,38.22c-23.13,0-41.88,13.26-41.88,29.61c0,8.26,4.81,15.71,12.52,21.08l-8.72,20.87l30.71-12.34
	l-0.75-0.58c2.63,0.37,5.34,0.58,8.13,0.58c23.13,0,41.88-13.26,41.88-29.61C115.88,51.48,97.13,38.22,74,38.22z"/>
</svg>
