<?xml version="1.0" encoding="utf-8"?>
<!-- Generator: Adobe Illustrator 19.0.1, SVG Export Plug-In . SVG Version: 6.00 Build 0)  -->
<!DOCTYPE svg PUBLIC "-//W3C//DTD SVG 1.1 Tiny//EN" "http://www.w3.org/Graphics/SVG/1.1/DTD/svg11-tiny.dtd">
<svg version="1.1" baseProfile="tiny" id="Layer_1" xmlns="http://www.w3.org/2000/svg" xmlns:xlink="http://www.w3.org/1999/xlink"
	 x="0px" y="0px" width="148px" height="148px" viewBox="0 0 148 148" xml:space="preserve">
<g id="XMLID_6_">
	<g id="XMLID_7_">
		<g id="XMLID_8_">
			<path fill-rule="evenodd" fill="#FFFFFF" d="M74,144.58c-38.92,0-70.58-31.66-70.58-70.58S35.08,3.42,74,3.42
				c38.92,0,70.58,31.66,70.58,70.58S112.92,144.58,74,144.58z"/>
			<path fill="#346B90" d="M74.01,6.84c37.09,0,67.16,30.07,67.16,67.16c0,37.08-30.07,67.16-67.16,67.16S6.84,111.08,6.84,74
				C6.84,36.91,36.92,6.84,74.01,6.84 M74.01,0C33.2,0,0,33.2,0,74s33.2,74,74.01,74c40.8,0,73.99-33.19,73.99-74S114.81,0,74.01,0
				L74.01,0z"/>
		</g>
	</g>
</g>
<g>
	<path fill="#346B90" d="M113.02,84.39c-1.45,3.2-2.68,6.53-4.42,9.57c-1.45,2.52-3.49,4.71-5.27,7.04c-0.18-0.1-0.35-0.2-0.53-0.31
		c0.19-0.49,0.37-0.98,0.57-1.45c1.23-2.92,2.04-5.91,1.24-9.11c-0.8-3.2-2.63-4.77-5.89-5.1c-5.58-0.56-10.97,0.56-16.34,1.86
		c-0.49,0.12-1,0.56-1.31,0.99c-9.76,13.5-22.08,23.98-36.98,31.43c-2.51,1.26-5.05,2.46-7.58,3.67c-0.45,0.21-0.93,0.34-1.53,0.26
		c2.04-1.8,4.13-3.56,6.13-5.4c8.81-8.12,16.69-17.01,22.45-27.6c3.5-6.43,5.85-13.22,6.2-20.59c0.36-7.54-1.91-14.28-7.09-19.72
		c-5.48-5.76-11.29-11.21-17.06-16.68c-3.13-2.96-6.49-5.68-9.75-8.51c0.8,0.33,1.66,0.56,2.4,1c7.51,4.47,14.94,9.09,22.53,13.41
		c5.92,3.36,12.01,6.43,18.1,9.49c4.59,2.3,8.1-0.05,9.9-2.87c2.2-3.44,3.11-7.27,2.73-11.32c-0.24-2.6-0.86-5.17-1.39-8.16
		c1.1,1.07,2.02,1.82,2.78,2.72c4.15,4.92,5.54,10.78,5.36,17.02c-0.25,8.62-2.65,16.81-5.42,24.91c-0.19,0.56-0.35,1.13-0.5,1.59
		c3.81,0.33,7.45,0.44,11.03,1c4.03,0.63,7.81,1.96,9.63,6.18C113.02,81.26,113.02,82.82,113.02,84.39z"/>
	
		<ellipse transform="matrix(0.9916 -0.1292 0.1292 0.9916 -3.9387 10.5663)" fill="#346B90" cx="79.48" cy="35.65" rx="6.35" ry="8.96"/>
</g>
</svg>
