<?xml version="1.0" encoding="utf-8"?>
<!-- Generator: Adobe Illustrator 19.0.1, SVG Export Plug-In . SVG Version: 6.00 Build 0)  -->
<!DOCTYPE svg PUBLIC "-//W3C//DTD SVG 1.1 Tiny//EN" "http://www.w3.org/Graphics/SVG/1.1/DTD/svg11-tiny.dtd">
<svg version="1.1" baseProfile="tiny" id="Layer_1" xmlns="http://www.w3.org/2000/svg" xmlns:xlink="http://www.w3.org/1999/xlink"
	 x="0px" y="0px" width="148px" height="148px" viewBox="0 0 148 148" xml:space="preserve">
<g>
	<g id="XMLID_24_">
		<g id="XMLID_26_">
			<g id="XMLID_27_">
				<path fill-rule="evenodd" fill="#FFFFFF" d="M74.01,144.58c-38.92,0-70.59-31.66-70.59-70.58c0-38.92,31.66-70.58,70.59-70.58
					c38.92,0,70.58,31.66,70.58,70.58C144.58,112.92,112.92,144.58,74.01,144.58z"/>
				<path fill="#F7976C" d="M74.01,6.84c37.09,0,67.16,30.07,67.16,67.16c0,37.08-30.07,67.16-67.16,67.16S6.84,111.08,6.84,74
					C6.84,36.91,36.92,6.84,74.01,6.84 M74.01,0C33.2,0,0,33.2,0,74s33.2,74,74.01,74c40.8,0,73.99-33.19,73.99-74S114.81,0,74.01,0
					L74.01,0z"/>
			</g>
		</g>
	</g>
	<g>
		<g>
			<path fill="#346B8F" d="M132.16,55.66c-1.27-1.22-3.3-1.17-4.64-0.02c0,0-5.61,8.93-13.56,8.95c-6.71,0.02-13.56-8.95-13.56-8.95
				c-1.33-1.15-3.36-1.2-4.64,0.02c-1.46,1.4-1.37,3.71,0.13,4.99l11.06,9.52c0.19,0.16,0.4,0.3,0.61,0.41v15.49v5.53l0,8.45
				c0,1.75,1.28,3.32,3.02,3.49c1.49,0.15,2.79-0.67,3.38-1.9c0.59,1.23,1.9,2.05,3.38,1.9c1.74-0.18,3.02-1.75,3.02-3.5l0-8.45
				v-5.53V70.59c0.21-0.11,0.42-0.25,0.61-0.41l11.06-9.52C133.53,59.37,133.62,57.06,132.16,55.66z"/>
			<circle fill="#346B8F" cx="113.97" cy="56.57" r="6.09"/>
		</g>
		<g>
			<path fill="#5DABA1" d="M52.23,55.56c-1.27-1.22-3.3-1.17-4.64-0.02c0,0-5.61,8.93-13.56,8.95c-6.71,0.02-13.56-8.95-13.56-8.95
				c-1.33-1.15-3.36-1.2-4.64,0.02c-1.46,1.4-1.37,3.71,0.13,4.99l11.06,9.52c0.19,0.16,0.4,0.3,0.61,0.41v15.49v5.53l0,8.45
				c0,1.75,1.28,3.32,3.02,3.49c1.49,0.15,2.79-0.67,3.38-1.9c0.59,1.23,1.9,2.05,3.38,1.9c1.74-0.18,3.02-1.75,3.02-3.5l0-8.45
				v-5.53V70.49c0.21-0.11,0.42-0.25,0.61-0.41l11.06-9.52C53.6,59.27,53.69,56.96,52.23,55.56z"/>
			<circle fill="#5DABA1" cx="34.04" cy="56.47" r="6.09"/>
		</g>
		<g>
			<path fill="#F7976C" d="M92.15,55.66c-1.27-1.22-3.3-1.17-4.64-0.02c0,0-5.61,8.93-13.56,8.95c-6.71,0.02-13.56-8.95-13.56-8.95
				c-1.33-1.15-3.36-1.2-4.64,0.02c-1.46,1.4-1.37,3.71,0.13,4.99l11.06,9.52c0.19,0.16,0.4,0.3,0.61,0.41v15.49v5.53l0,8.45
				c0,1.75,1.28,3.32,3.02,3.49c1.49,0.15,2.79-0.67,3.38-1.9c0.59,1.23,1.9,2.05,3.38,1.9c1.74-0.18,3.02-1.75,3.02-3.5v-8.45
				v-5.53V70.59c0.21-0.11,0.42-0.25,0.61-0.41l11.06-9.52C93.52,59.37,93.61,57.06,92.15,55.66z"/>
			<circle fill="#F7976C" cx="73.96" cy="56.57" r="6.09"/>
		</g>
	</g>
</g>
</svg>
